<svg xmlns="http://www.w3.org/2000/svg" width="82" height="82" viewBox="0 0 82 82">
  <g id="Grupo_106" data-name="Grupo 106" transform="translate(-433 -1317)">
    <circle id="Elipse_27" data-name="Elipse 27" cx="2.5" cy="2.5" r="2.5" transform="translate(433 1317)" fill="#5cc9e5"/>
    <circle id="Elipse_27-2" data-name="Elipse 27" cx="2.5" cy="2.5" r="2.5" transform="translate(448 1317)" fill="#5cc9e5"/>
    <circle id="Elipse_27-3" data-name="Elipse 27" cx="2.5" cy="2.5" r="2.5" transform="translate(464 1317)" fill="#5cc9e5"/>
    <circle id="Elipse_27-4" data-name="Elipse 27" cx="2.5" cy="2.5" r="2.5" transform="translate(479 1317)" fill="#5cc9e5"/>
    <circle id="Elipse_27-5" data-name="Elipse 27" cx="2.5" cy="2.5" r="2.5" transform="translate(494 1317)" fill="#5cc9e5"/>
    <ellipse id="Elipse_27-6" data-name="Elipse 27" cx="3" cy="2.5" rx="3" ry="2.5" transform="translate(509 1317)" fill="#5cc9e5"/>
    <circle id="Elipse_27-7" data-name="Elipse 27" cx="2.5" cy="2.5" r="2.5" transform="translate(433 1332)" fill="#5cc9e5"/>
    <circle id="Elipse_27-8" data-name="Elipse 27" cx="2.5" cy="2.5" r="2.5" transform="translate(448 1332)" fill="#5cc9e5"/>
    <circle id="Elipse_27-9" data-name="Elipse 27" cx="2.5" cy="2.5" r="2.5" transform="translate(464 1332)" fill="#5cc9e5"/>
    <circle id="Elipse_27-10" data-name="Elipse 27" cx="2.5" cy="2.5" r="2.5" transform="translate(479 1332)" fill="#5cc9e5"/>
    <circle id="Elipse_27-11" data-name="Elipse 27" cx="2.5" cy="2.5" r="2.5" transform="translate(494 1332)" fill="#5cc9e5"/>
    <ellipse id="Elipse_27-12" data-name="Elipse 27" cx="3" cy="2.5" rx="3" ry="2.5" transform="translate(509 1332)" fill="#5cc9e5"/>
    <circle id="Elipse_27-13" data-name="Elipse 27" cx="2.5" cy="2.5" r="2.5" transform="translate(433 1348)" fill="#5cc9e5"/>
    <circle id="Elipse_27-14" data-name="Elipse 27" cx="2.5" cy="2.5" r="2.5" transform="translate(448 1348)" fill="#5cc9e5"/>
    <circle id="Elipse_27-15" data-name="Elipse 27" cx="2.5" cy="2.5" r="2.5" transform="translate(464 1348)" fill="#5cc9e5"/>
    <circle id="Elipse_27-16" data-name="Elipse 27" cx="2.5" cy="2.5" r="2.5" transform="translate(479 1348)" fill="#5cc9e5"/>
    <circle id="Elipse_27-17" data-name="Elipse 27" cx="2.5" cy="2.5" r="2.5" transform="translate(494 1348)" fill="#5cc9e5"/>
    <ellipse id="Elipse_27-18" data-name="Elipse 27" cx="3" cy="2.5" rx="3" ry="2.5" transform="translate(509 1348)" fill="#5cc9e5"/>
    <circle id="Elipse_27-19" data-name="Elipse 27" cx="2.5" cy="2.5" r="2.5" transform="translate(433 1363)" fill="#5cc9e5"/>
    <circle id="Elipse_27-20" data-name="Elipse 27" cx="2.5" cy="2.5" r="2.5" transform="translate(448 1363)" fill="#5cc9e5"/>
    <circle id="Elipse_27-21" data-name="Elipse 27" cx="2.5" cy="2.5" r="2.5" transform="translate(464 1363)" fill="#5cc9e5"/>
    <circle id="Elipse_27-22" data-name="Elipse 27" cx="2.5" cy="2.5" r="2.5" transform="translate(479 1363)" fill="#5cc9e5"/>
    <circle id="Elipse_27-23" data-name="Elipse 27" cx="2.5" cy="2.5" r="2.5" transform="translate(494 1363)" fill="#5cc9e5"/>
    <ellipse id="Elipse_27-24" data-name="Elipse 27" cx="3" cy="2.5" rx="3" ry="2.5" transform="translate(509 1363)" fill="#5cc9e5"/>
    <circle id="Elipse_27-25" data-name="Elipse 27" cx="2.5" cy="2.5" r="2.5" transform="translate(433 1378)" fill="#5cc9e5"/>
    <circle id="Elipse_27-26" data-name="Elipse 27" cx="2.5" cy="2.5" r="2.5" transform="translate(448 1378)" fill="#5cc9e5"/>
    <circle id="Elipse_27-27" data-name="Elipse 27" cx="2.5" cy="2.5" r="2.5" transform="translate(464 1378)" fill="#5cc9e5"/>
    <circle id="Elipse_27-28" data-name="Elipse 27" cx="2.5" cy="2.5" r="2.5" transform="translate(479 1378)" fill="#5cc9e5"/>
    <circle id="Elipse_27-29" data-name="Elipse 27" cx="2.5" cy="2.5" r="2.5" transform="translate(494 1378)" fill="#5cc9e5"/>
    <ellipse id="Elipse_27-30" data-name="Elipse 27" cx="3" cy="2.5" rx="3" ry="2.5" transform="translate(509 1378)" fill="#5cc9e5"/>
    <ellipse id="Elipse_27-31" data-name="Elipse 27" cx="2.5" cy="3" rx="2.5" ry="3" transform="translate(433 1393)" fill="#5cc9e5"/>
    <ellipse id="Elipse_27-32" data-name="Elipse 27" cx="2.5" cy="3" rx="2.5" ry="3" transform="translate(448 1393)" fill="#5cc9e5"/>
    <ellipse id="Elipse_27-33" data-name="Elipse 27" cx="2.5" cy="3" rx="2.5" ry="3" transform="translate(464 1393)" fill="#5cc9e5"/>
    <ellipse id="Elipse_27-34" data-name="Elipse 27" cx="2.5" cy="3" rx="2.5" ry="3" transform="translate(479 1393)" fill="#5cc9e5"/>
    <ellipse id="Elipse_27-35" data-name="Elipse 27" cx="2.5" cy="3" rx="2.5" ry="3" transform="translate(494 1393)" fill="#5cc9e5"/>
    <circle id="Elipse_27-36" data-name="Elipse 27" cx="3" cy="3" r="3" transform="translate(509 1393)" fill="#5cc9e5"/>
  </g>
</svg>
